<svg width="15" height="10" viewBox="0 0 15 10" fill="none" xmlns="http://www.w3.org/2000/svg">
<path fill-rule="evenodd" clip-rule="evenodd" d="M6.52919 5.00551L6.53046 5.30059C6.5406 6.47098 6.61115 7.51522 6.73283 8.17698C6.73283 8.18891 6.86555 8.84524 6.9501 9.0637C7.08282 9.37947 7.32282 9.64751 7.62373 9.81733C7.86463 9.9385 8.11736 10 8.3819 10C8.58985 9.99036 8.9328 9.88572 9.17757 9.79798L9.38098 9.72003C10.7282 9.18487 13.3037 7.4362 14.29 6.36681L14.3627 6.29206L14.6873 5.9418C14.8918 5.67377 15 5.34606 15 4.99357C15 4.6778 14.9036 4.36203 14.7109 4.10685C14.6532 4.02417 14.5603 3.91811 14.4776 3.82849L14.1617 3.49782C13.0746 2.39643 10.721 0.851526 9.50098 0.339637C9.50098 0.328621 8.7428 0.0119332 8.3819 0H8.33372C7.78009 0 7.26282 0.31577 6.99828 0.826143C6.92601 0.965669 6.85669 1.23898 6.80396 1.47903L6.70919 1.93226C6.60101 2.6611 6.52919 3.77914 6.52919 5.00551ZM1.25271 3.73472C0.560902 3.73472 0 4.30108 0 4.99963C0 5.69818 0.560902 6.26455 1.25271 6.26455L4.3354 5.99192C4.87812 5.99192 5.31812 5.54856 5.31812 4.99963C5.31812 4.45162 4.87812 4.00734 4.3354 4.00734L1.25271 3.73472Z" fill="white"/>
</svg>
