<svg width="20" height="16" viewBox="0 0 20 16" fill="none" xmlns="http://www.w3.org/2000/svg">
<path d="M19.4859 8.00025C19.4859 8.44863 19.1527 8.81919 18.7204 8.87784L18.6002 8.88592L0.886663 8.88592C0.397519 8.88592 0.000986547 8.48939 0.000986547 8.00025C0.000986547 7.55186 0.334183 7.1813 0.766484 7.12266L0.886663 7.11457L18.6002 7.11457C19.0893 7.11457 19.4859 7.5111 19.4859 8.00025Z" fill="white"/>
<path d="M8.65531 14.4867C9.00194 14.8319 9.00314 15.3927 8.65801 15.7393C8.34425 16.0544 7.85228 16.084 7.505 15.8275L7.40548 15.742L0.261022 8.62823C-0.0550314 8.31353 -0.0837822 7.81978 0.174781 7.47251L0.26097 7.37305L7.40543 0.258113C7.75202 -0.0870479 8.3128 -0.0858869 8.65796 0.260707C8.97174 0.575792 8.99931 1.06789 8.74133 1.41408L8.65537 1.51324L2.14147 8.00096L8.65531 14.4867Z" fill="white"/>
</svg>
