<svg width="18" height="24" viewBox="0 0 18 24" fill="none" xmlns="http://www.w3.org/2000/svg">
<path fill-rule="evenodd" clip-rule="evenodd" d="M8.74562 23.2492C4.43341 23.2492 0.750886 22.5781 0.750886 19.8907C0.750886 17.2033 4.41005 14.7225 8.74562 14.7225C13.0578 14.7225 16.7404 17.1793 16.7404 19.8667C16.7404 22.553 13.0812 23.2492 8.74562 23.2492Z" stroke="white" stroke-width="1.5" stroke-linecap="round" stroke-linejoin="round"/>
<path fill-rule="evenodd" clip-rule="evenodd" d="M8.73722 10.9989C11.5671 10.9989 13.8607 8.70527 13.8607 5.87542C13.8607 3.04556 11.5671 0.750886 8.73722 0.750886C5.90737 0.750886 3.61269 3.04556 3.61269 5.87542C3.60313 8.69572 5.88082 10.9893 8.70112 10.9989C8.71386 10.9989 8.72554 10.9989 8.73722 10.9989Z" stroke="white" stroke-width="1.5" stroke-linecap="round" stroke-linejoin="round"/>
</svg>
