<svg width="186" height="180" viewBox="0 0 186 180" fill="none" xmlns="http://www.w3.org/2000/svg">
<circle cx="95.4668" cy="90.5" r="70.5" fill="#1AADB6"/>
<circle cx="178.434" cy="27.5" r="7.5" fill="#76D39D"/>
<circle cx="20" cy="10" r="10" fill="#76D39D"/>
<circle cx="10" cy="133" r="5" fill="#76D39D"/>
<circle cx="165.5" cy="160.5" r="2.5" fill="#76D39D"/>
<path fill-rule="evenodd" clip-rule="evenodd" d="M84.8216 65.9175H106.135C114.469 65.9175 120.049 71.7683 120.049 80.4708V100.558C120.049 109.233 114.469 115.084 106.135 115.084H84.8216C76.4878 115.084 70.8828 109.233 70.8828 100.558V80.4708C70.8828 71.7683 76.4878 65.9175 84.8216 65.9175ZM94.0648 97.8512L105.742 86.1741C106.578 85.3383 106.578 83.9862 105.742 83.1258C104.906 82.2899 103.529 82.2899 102.694 83.1258L92.5406 93.2787L88.2385 88.9766C87.4027 88.1408 86.026 88.1408 85.1902 88.9766C84.3543 89.8124 84.3543 91.1645 85.1902 92.0249L91.041 97.8512C91.4589 98.2691 91.9998 98.4658 92.5406 98.4658C93.106 98.4658 93.6468 98.2691 94.0648 97.8512Z" fill="white"/>
<circle cx="106.5" cy="4.5" r="2.5" fill="#76D39D"/>
<circle cx="62.5" cy="176.5" r="3.5" fill="#76D39D"/>
<circle cx="122" cy="171" r="1" fill="#76D39D"/>
<circle cx="170.5" cy="110.5" r="2.5" fill="#76D39D"/>
<circle cx="1" cy="75" r="1" fill="#76D39D"/>
</svg>
