<svg width="32" height="32" viewBox="0 0 32 32" fill="none" xmlns="http://www.w3.org/2000/svg">
<path opacity="0.3" d="M29.3332 28.0002C27.8532 28.0002 27.0265 27.5069 26.4265 27.1469C25.9332 26.8535 25.6265 26.6669 24.8932 26.6669C24.1465 26.6669 23.8532 26.8402 23.3598 27.1469C22.7465 27.5069 21.9332 28.0002 20.4532 28.0002C18.9732 28.0002 18.1465 27.5069 17.5465 27.1469C17.0532 26.8535 16.7465 26.6669 16.0132 26.6669C15.2665 26.6669 14.9732 26.8402 14.4798 27.1469C13.8665 27.5069 13.0398 28.0002 11.5598 28.0002C10.0798 28.0002 9.25317 27.5069 8.65317 27.1469C8.15984 26.8402 7.85317 26.6669 7.11984 26.6669C6.3865 26.6669 6.07984 26.8402 5.5865 27.1469C4.97317 27.5069 4.1465 28.0002 2.6665 28.0002V25.3335C3.41317 25.3335 3.7065 25.1602 4.19984 24.8535C4.81317 24.4935 5.63984 24.0002 7.11984 24.0002C8.59984 24.0002 9.4265 24.4935 10.0265 24.8535C10.5198 25.1602 10.8132 25.3335 11.5598 25.3335C12.3065 25.3335 12.5998 25.1602 13.0932 24.8535C13.7065 24.4935 14.5332 24.0002 16.0132 24.0002C17.4932 24.0002 18.3198 24.4935 18.9198 24.8535C19.4132 25.1469 19.7198 25.3335 20.4532 25.3335C21.1865 25.3335 21.4932 25.1602 21.9865 24.8535C22.5865 24.4935 23.4132 24.0002 24.8932 24.0002C26.3732 24.0002 27.1998 24.4935 27.7998 24.8535C28.2932 25.1602 28.5865 25.3335 29.3332 25.3335V28.0002ZM29.3332 22.0002C27.8532 22.0002 27.0265 21.5069 26.4265 21.1469C25.9332 20.8535 25.6265 20.6669 24.8932 20.6669C24.1465 20.6669 23.8532 20.8402 23.3598 21.1469C22.7598 21.5069 21.9332 22.0002 20.4532 22.0002C18.9732 22.0002 18.1465 21.5069 17.5465 21.1469C17.0532 20.8535 16.7465 20.6669 16.0132 20.6669C15.2665 20.6669 14.9732 20.8402 14.4798 21.1469C13.8798 21.5069 13.0532 22.0002 11.5732 22.0002C10.0932 22.0002 9.2665 21.5069 8.6665 21.1469C8.17317 20.8535 7.8665 20.6669 7.13317 20.6669C6.39984 20.6669 6.09317 20.8402 5.59984 21.1469C4.97317 21.5069 4.1465 22.0002 2.6665 22.0002V19.3335C3.41317 19.3335 3.7065 19.1602 4.19984 18.8535C4.79984 18.4935 5.6265 18.0002 7.1065 18.0002C8.5865 18.0002 9.41317 18.4935 10.0132 18.8535C10.5065 19.1469 10.8132 19.3335 11.5465 19.3335C12.2932 19.3335 12.5865 19.1602 13.0798 18.8535C13.6798 18.4935 14.5065 18.0002 15.9865 18.0002C17.4665 18.0002 18.2932 18.4935 18.8932 18.8535C19.3865 19.1469 19.6932 19.3335 20.4265 19.3335C21.1598 19.3335 21.4665 19.1602 21.9598 18.8535C22.5598 18.4935 23.3865 18.0002 24.8665 18.0002C26.3465 18.0002 27.1732 18.4935 27.7732 18.8535C28.2665 19.1469 28.5732 19.3335 29.3065 19.3335V22.0002H29.3332ZM11.5598 16.0002C12.3065 16.0002 12.5998 15.8269 13.0932 15.5202C13.7065 15.1602 14.5332 14.6669 16.0132 14.6669C17.4932 14.6669 18.3198 15.1602 18.9198 15.5202C19.4132 15.8135 19.7198 16.0002 20.4532 16.0002C21.1865 16.0002 21.4932 15.8269 21.9865 15.5202C22.1465 15.4269 22.3332 15.3202 22.5332 15.2135L13.9732 6.66688C11.9065 4.60021 9.99984 3.98688 6.6665 4.00021V7.33355C9.09317 7.32021 10.5198 7.85355 11.9998 9.33355L13.3332 10.6669L8.99984 15.0002C9.41317 15.1602 9.7465 15.3602 10.0265 15.5202C10.5198 15.8269 10.8132 16.0002 11.5598 16.0002Z" fill="#1AADB6"/>
<path opacity="0.3" d="M21.9998 10.6667C23.8408 10.6667 25.3332 9.17428 25.3332 7.33333C25.3332 5.49238 23.8408 4 21.9998 4C20.1589 4 18.6665 5.49238 18.6665 7.33333C18.6665 9.17428 20.1589 10.6667 21.9998 10.6667Z" fill="#1AADB6"/>
<path d="M29.3332 22.0002H29.3065H29.3332ZM13.3332 10.6669L8.99984 15.0002C9.41317 15.1602 9.7465 15.3602 10.0265 15.5202C10.5198 15.8269 10.8132 16.0002 11.5598 16.0002C12.3065 16.0002 12.5998 15.8269 13.0932 15.5202C13.7065 15.1602 14.5332 14.6669 16.0132 14.6669C17.4932 14.6669 18.3198 15.1602 18.9198 15.5202C19.4132 15.8135 19.7198 16.0002 20.4532 16.0002C21.1865 16.0002 21.4932 15.8269 21.9865 15.5202C22.1465 15.4269 22.3332 15.3202 22.5332 15.2135L13.9732 6.66688C11.9065 4.60021 9.99984 3.98688 6.6665 4.00021V7.33355C9.09317 7.32021 10.5198 7.85355 11.9998 9.33355L13.3332 10.6669ZM7.13317 20.6669C7.8665 20.6669 8.17317 20.8535 8.6665 21.1469C9.2665 21.5069 10.0932 22.0002 11.5732 22.0002C13.0532 22.0002 13.8798 21.5069 14.4798 21.1469C14.9732 20.8402 15.2665 20.6669 16.0132 20.6669C16.7465 20.6669 17.0532 20.8535 17.5465 21.1469C18.1465 21.5069 18.9732 22.0002 20.4532 22.0002C21.9332 22.0002 22.7598 21.5069 23.3598 21.1469C23.8532 20.8402 24.1465 20.6669 24.8932 20.6669C25.6265 20.6669 25.9332 20.8535 26.4265 21.1469C27.0265 21.5069 27.8398 21.9869 29.3065 22.0002V19.3335C28.5732 19.3335 28.2665 19.1469 27.7732 18.8535C27.1732 18.4935 26.3465 18.0002 24.8665 18.0002C23.3865 18.0002 22.5598 18.4935 21.9598 18.8535C21.4665 19.1602 21.1598 19.3335 20.4265 19.3335C19.6932 19.3335 19.3865 19.1469 18.8932 18.8535C18.2932 18.4935 17.4665 18.0002 15.9865 18.0002C14.5065 18.0002 13.6798 18.4935 13.0798 18.8535C12.5865 19.1602 12.2932 19.3335 11.5465 19.3335C10.8132 19.3335 10.5065 19.1469 10.0132 18.8535C9.41317 18.4935 8.5865 18.0002 7.1065 18.0002C5.6265 18.0002 4.79984 18.4935 4.19984 18.8535C3.7065 19.1602 3.41317 19.3335 2.6665 19.3335V22.0002C4.1465 22.0002 4.97317 21.5069 5.59984 21.1469C6.09317 20.8402 6.39984 20.6669 7.13317 20.6669ZM24.8932 24.0002C23.4132 24.0002 22.5865 24.4935 21.9865 24.8535C21.4932 25.1602 21.1865 25.3335 20.4532 25.3335C19.7198 25.3335 19.4132 25.1469 18.9198 24.8535C18.3198 24.4935 17.4932 24.0002 16.0132 24.0002C14.5332 24.0002 13.7065 24.4935 13.0932 24.8535C12.5998 25.1602 12.3065 25.3335 11.5598 25.3335C10.8132 25.3335 10.5198 25.1602 10.0265 24.8535C9.4265 24.4935 8.59984 24.0002 7.11984 24.0002C5.63984 24.0002 4.81317 24.4935 4.19984 24.8535C3.7065 25.1602 3.41317 25.3335 2.6665 25.3335V28.0002C4.1465 28.0002 4.97317 27.5069 5.5865 27.1469C6.07984 26.8402 6.3865 26.6669 7.11984 26.6669C7.85317 26.6669 8.15984 26.8402 8.65317 27.1469C9.25317 27.5069 10.0798 28.0002 11.5598 28.0002C13.0398 28.0002 13.8665 27.5069 14.4798 27.1469C14.9732 26.8402 15.2665 26.6669 16.0132 26.6669C16.7465 26.6669 17.0532 26.8535 17.5465 27.1469C18.1465 27.5069 18.9732 28.0002 20.4532 28.0002C21.9332 28.0002 22.7465 27.5069 23.3598 27.1469C23.8532 26.8402 24.1465 26.6669 24.8932 26.6669C25.6265 26.6669 25.9332 26.8535 26.4265 27.1469C27.0265 27.5069 27.8532 28.0002 29.3332 28.0002V25.3335C28.5865 25.3335 28.2932 25.1602 27.7998 24.8535C27.1998 24.4935 26.3732 24.0002 24.8932 24.0002Z" fill="#1AADB6"/>
<path d="M21.9998 10.6667C23.8408 10.6667 25.3332 9.17428 25.3332 7.33333C25.3332 5.49238 23.8408 4 21.9998 4C20.1589 4 18.6665 5.49238 18.6665 7.33333C18.6665 9.17428 20.1589 10.6667 21.9998 10.6667Z" fill="#1AADB6"/>
</svg>
