<svg width="27" height="24" viewBox="0 0 27 24" fill="none" xmlns="http://www.w3.org/2000/svg">
<path d="M20 21.3333H22.6667V10.6667H14.6667V21.3333H17.3333V13.3333H20V21.3333ZM1.33333 21.3333V1.33333C1.33333 0.979711 1.47381 0.640573 1.72386 0.390524C1.97391 0.140476 2.31304 0 2.66667 0H21.3333C21.687 0 22.0261 0.140476 22.2761 0.390524C22.5262 0.640573 22.6667 0.979711 22.6667 1.33333V8H25.3333V21.3333H26.6667V24H0V21.3333H1.33333ZM6.66667 10.6667V13.3333H9.33333V10.6667H6.66667ZM6.66667 16V18.6667H9.33333V16H6.66667ZM6.66667 5.33333V8H9.33333V5.33333H6.66667Z" fill="#1AADB6"/>
</svg>
