<svg width="30" height="20" viewBox="0 0 30 20" fill="none" xmlns="http://www.w3.org/2000/svg">
<path d="M24 2.66667H13.3333V12H2.66667V0H0V20H2.66667V16H26.6667V20H29.3333V8C29.3333 6.58551 28.7714 5.22896 27.7712 4.22876C26.771 3.22857 25.4145 2.66667 24 2.66667ZM8 10.6667C9.06087 10.6667 10.0783 10.2452 10.8284 9.49509C11.5786 8.74495 12 7.72753 12 6.66667C12 5.6058 11.5786 4.58839 10.8284 3.83824C10.0783 3.08809 9.06087 2.66667 8 2.66667C6.93913 2.66667 5.92172 3.08809 5.17157 3.83824C4.42143 4.58839 4 5.6058 4 6.66667C4 7.72753 4.42143 8.74495 5.17157 9.49509C5.92172 10.2452 6.93913 10.6667 8 10.6667Z" fill="#1AADB6"/>
</svg>
