<svg width="17" height="15" viewBox="0 0 17 15" fill="none" xmlns="http://www.w3.org/2000/svg">
<path fill-rule="evenodd" clip-rule="evenodd" d="M12.4492 0C13.5667 0 14.6417 0.441667 15.4325 1.23417C16.2242 2.025 16.6667 3.09167 16.6667 4.20833V10.7917C16.6667 13.1167 14.775 15 12.4492 15H4.21667C1.89083 15 0 13.1167 0 10.7917V4.20833C0 1.88333 1.8825 0 4.21667 0H12.4492ZM13.775 5.45L13.8417 5.38333C14.0408 5.14167 14.0408 4.79167 13.8325 4.55C13.7167 4.42583 13.5575 4.35 13.3917 4.33333C13.2167 4.32417 13.05 4.38333 12.9242 4.5L9.16667 7.5C8.68333 7.90083 7.99083 7.90083 7.5 7.5L3.75 4.5C3.49083 4.30833 3.1325 4.33333 2.91667 4.55833C2.69167 4.78333 2.66667 5.14167 2.8575 5.39167L2.96667 5.5L6.75833 8.45833C7.225 8.825 7.79083 9.025 8.38333 9.025C8.97417 9.025 9.55 8.825 10.0158 8.45833L13.775 5.45Z" fill="#9E9E9E"/>
</svg>
