<svg width="15" height="14" viewBox="0 0 15 14" fill="none" xmlns="http://www.w3.org/2000/svg">
<path d="M6.09284 10.9493H0.783133" stroke="#1AADB6" stroke-width="1.5" stroke-linecap="round" stroke-linejoin="round"/>
<path d="M8.46139 2.78119H13.7711" stroke="#1AADB6" stroke-width="1.5" stroke-linecap="round" stroke-linejoin="round"/>
<path fill-rule="evenodd" clip-rule="evenodd" d="M4.74136 2.73567C4.74136 1.6438 3.84963 0.758444 2.7499 0.758444C1.65017 0.758444 0.758444 1.6438 0.758444 2.73567C0.758444 3.82754 1.65017 4.71289 2.7499 4.71289C3.84963 4.71289 4.74136 3.82754 4.74136 2.73567Z" stroke="#1AADB6" stroke-width="1.5" stroke-linecap="round" stroke-linejoin="round"/>
<path fill-rule="evenodd" clip-rule="evenodd" d="M14.2417 10.9163C14.2417 9.82447 13.3506 8.93912 12.2509 8.93912C11.1505 8.93912 10.2587 9.82447 10.2587 10.9163C10.2587 12.0082 11.1505 12.8936 12.2509 12.8936C13.3506 12.8936 14.2417 12.0082 14.2417 10.9163Z" stroke="#1AADB6" stroke-width="1.5" stroke-linecap="round" stroke-linejoin="round"/>
</svg>
