<svg width="21" height="22" viewBox="0 0 21 22" fill="none" xmlns="http://www.w3.org/2000/svg">
<path d="M7.57948 19.9754V16.8373C7.57946 16.0392 8.23017 15.3906 9.03639 15.3853H11.9896C12.7996 15.3853 13.4563 16.0354 13.4563 16.8373V16.8373V19.9851C13.4561 20.6628 14.0025 21.2167 14.6868 21.2326H16.6556C18.6183 21.2326 20.2093 19.6574 20.2093 17.7144V17.7144V8.78755C20.1988 8.02317 19.8363 7.30538 19.2249 6.83845L12.4916 1.46868C11.312 0.533696 9.63519 0.533696 8.45559 1.46868L1.75184 6.8482C1.13813 7.31323 0.775 8.03222 0.767442 8.7973V17.7144C0.767442 19.6574 2.35848 21.2326 4.32112 21.2326H6.28991C6.99125 21.2326 7.55979 20.6697 7.55979 19.9754V19.9754" stroke="#9E9E9E" stroke-width="1.5" stroke-linecap="round" stroke-linejoin="round"/>
</svg>
