<svg width="272" height="32" viewBox="0 0 272 32" fill="none" xmlns="http://www.w3.org/2000/svg">
<path d="M23.8912 19.0935C23.5459 19.4282 23.3872 19.9122 23.4659 20.3868L24.6512 26.9468C24.7512 27.5028 24.5165 28.0655 24.0512 28.3868C23.5952 28.7202 22.9885 28.7602 22.4912 28.4935L16.5858 25.4135C16.3805 25.3042 16.1525 25.2455 15.9192 25.2388H15.5578C15.4325 25.2575 15.3099 25.2975 15.1979 25.3588L9.29118 28.4535C8.99918 28.6002 8.66852 28.6522 8.34452 28.6002C7.55518 28.4508 7.02852 27.6988 7.15785 26.9055L8.34452 20.3455C8.42318 19.8668 8.26452 19.3802 7.91918 19.0402L3.10452 14.3735C2.70185 13.9828 2.56185 13.3962 2.74585 12.8668C2.92452 12.3388 3.38052 11.9535 3.93118 11.8668L10.5578 10.9055C11.0619 10.8535 11.5045 10.5468 11.7312 10.0935L14.6512 4.10683C14.7205 3.9735 14.8099 3.85083 14.9179 3.74683L15.0378 3.6535C15.1005 3.58416 15.1725 3.52683 15.2525 3.48016L15.3979 3.42683L15.6245 3.3335H16.1859C16.6872 3.3855 17.1285 3.6855 17.3592 4.1335L20.3179 10.0935C20.5312 10.5295 20.9459 10.8322 21.4245 10.9055L28.0512 11.8668C28.6112 11.9468 29.0792 12.3335 29.2645 12.8668C29.4392 13.4015 29.2885 13.9882 28.8779 14.3735L23.8912 19.0935Z" fill="#FFD300"/>
<path d="M83.8912 19.0935C83.5459 19.4282 83.3872 19.9122 83.4659 20.3868L84.6512 26.9468C84.7512 27.5028 84.5165 28.0655 84.0512 28.3868C83.5952 28.7202 82.9885 28.7602 82.4912 28.4935L76.5858 25.4135C76.3805 25.3042 76.1525 25.2455 75.9192 25.2388H75.5578C75.4325 25.2575 75.3099 25.2975 75.1979 25.3588L69.2912 28.4535C68.9992 28.6002 68.6685 28.6522 68.3445 28.6002C67.5552 28.4508 67.0285 27.6988 67.1579 26.9055L68.3445 20.3455C68.4232 19.8668 68.2645 19.3802 67.9192 19.0402L63.1045 14.3735C62.7019 13.9828 62.5619 13.3962 62.7459 12.8668C62.9245 12.3388 63.3805 11.9535 63.9312 11.8668L70.5578 10.9055C71.0619 10.8535 71.5045 10.5468 71.7312 10.0935L74.6512 4.10683C74.7205 3.9735 74.8099 3.85083 74.9179 3.74683L75.0378 3.6535C75.1005 3.58416 75.1725 3.52683 75.2525 3.48016L75.3979 3.42683L75.6245 3.3335H76.1859C76.6872 3.3855 77.1285 3.6855 77.3592 4.1335L80.3179 10.0935C80.5312 10.5295 80.9459 10.8322 81.4245 10.9055L88.0512 11.8668C88.6112 11.9468 89.0792 12.3335 89.2645 12.8668C89.4392 13.4015 89.2885 13.9882 88.8779 14.3735L83.8912 19.0935Z" fill="#FFD300"/>
<path d="M143.891 19.0935C143.546 19.4282 143.387 19.9122 143.466 20.3868L144.651 26.9468C144.751 27.5028 144.517 28.0655 144.051 28.3868C143.595 28.7202 142.989 28.7602 142.491 28.4935L136.586 25.4135C136.381 25.3042 136.153 25.2455 135.919 25.2388H135.558C135.433 25.2575 135.31 25.2975 135.198 25.3588L129.291 28.4535C128.999 28.6002 128.669 28.6522 128.345 28.6002C127.555 28.4508 127.029 27.6988 127.158 26.9055L128.345 20.3455C128.423 19.8668 128.265 19.3802 127.919 19.0402L123.105 14.3735C122.702 13.9828 122.562 13.3962 122.746 12.8668C122.925 12.3388 123.381 11.9535 123.931 11.8668L130.558 10.9055C131.062 10.8535 131.505 10.5468 131.731 10.0935L134.651 4.10683C134.721 3.9735 134.81 3.85083 134.918 3.74683L135.038 3.6535C135.101 3.58416 135.173 3.52683 135.253 3.48016L135.398 3.42683L135.625 3.3335H136.186C136.687 3.3855 137.129 3.6855 137.359 4.1335L140.318 10.0935C140.531 10.5295 140.946 10.8322 141.425 10.9055L148.051 11.8668C148.611 11.9468 149.079 12.3335 149.265 12.8668C149.439 13.4015 149.289 13.9882 148.878 14.3735L143.891 19.0935Z" fill="#FFD300"/>
<path d="M203.891 19.0935C203.546 19.4282 203.387 19.9122 203.466 20.3868L204.651 26.9468C204.751 27.5028 204.517 28.0655 204.051 28.3868C203.595 28.7202 202.989 28.7602 202.491 28.4935L196.586 25.4135C196.381 25.3042 196.153 25.2455 195.919 25.2388H195.558C195.433 25.2575 195.31 25.2975 195.198 25.3588L189.291 28.4535C188.999 28.6002 188.669 28.6522 188.345 28.6002C187.555 28.4508 187.029 27.6988 187.158 26.9055L188.345 20.3455C188.423 19.8668 188.265 19.3802 187.919 19.0402L183.105 14.3735C182.702 13.9828 182.562 13.3962 182.746 12.8668C182.925 12.3388 183.381 11.9535 183.931 11.8668L190.558 10.9055C191.062 10.8535 191.505 10.5468 191.731 10.0935L194.651 4.10683C194.721 3.9735 194.81 3.85083 194.918 3.74683L195.038 3.6535C195.101 3.58416 195.173 3.52683 195.253 3.48016L195.398 3.42683L195.625 3.3335H196.186C196.687 3.3855 197.129 3.6855 197.359 4.1335L200.318 10.0935C200.531 10.5295 200.946 10.8322 201.425 10.9055L208.051 11.8668C208.611 11.9468 209.079 12.3335 209.265 12.8668C209.439 13.4015 209.289 13.9882 208.878 14.3735L203.891 19.0935Z" fill="#FFD300"/>
<path fill-rule="evenodd" clip-rule="evenodd" d="M257.472 5.56918L259.909 10.4368C260.148 10.9147 260.609 11.2461 261.143 11.3227L266.594 12.1073C267.94 12.3018 268.476 13.9339 267.502 14.8691L263.56 18.6564C263.173 19.0289 262.997 19.5642 263.088 20.09L264.018 25.4369C264.247 26.7596 262.84 27.7688 261.636 27.143L256.764 24.6167C256.287 24.3689 255.715 24.3689 255.236 24.6167L250.364 27.143C249.16 27.7688 247.753 26.7596 247.983 25.4369L248.912 20.09C249.003 19.5642 248.827 19.0289 248.44 18.6564L244.498 14.8691C243.524 13.9339 244.06 12.3018 245.406 12.1073L250.857 11.3227C251.391 11.2461 251.854 10.9147 252.092 10.4368L254.528 5.56918C255.13 4.36561 256.87 4.36561 257.472 5.56918Z" stroke="white" stroke-width="1.5" stroke-linecap="round" stroke-linejoin="round"/>
</svg>
