<svg width="15" height="17" viewBox="0 0 15 17" fill="none" xmlns="http://www.w3.org/2000/svg">
<path fill-rule="evenodd" clip-rule="evenodd" d="M11.9192 4.58658V5.88991C13.3832 6.34688 14.4499 7.67218 14.4499 9.2551V13.4514C14.4499 15.4111 12.8253 16.9999 10.8223 16.9999H3.62846C1.62465 16.9999 0 15.4111 0 13.4514V9.2551C0 7.67218 1.06755 6.34688 2.53068 5.88991V4.58658C2.53932 2.05256 4.63814 0 7.21201 0C9.82042 0 11.9192 2.05256 11.9192 4.58658ZM7.22928 1.47818C8.98262 1.47818 10.4077 2.87189 10.4077 4.58658V5.70662H4.04218V4.56969C4.05082 2.86345 5.47594 1.47818 7.22928 1.47818ZM7.98071 12.2866C7.98071 12.7005 7.64387 13.0299 7.22065 13.0299C6.80606 13.0299 6.46922 12.7005 6.46922 12.2866V10.4115C6.46922 10.006 6.80606 9.67659 7.22065 9.67659C7.64387 9.67659 7.98071 10.006 7.98071 10.4115V12.2866Z" fill="#9E9E9E"/>
</svg>
