<svg width="61" height="179" viewBox="0 0 61 179" fill="none" xmlns="http://www.w3.org/2000/svg">
<path fill-rule="evenodd" clip-rule="evenodd" d="M24.8817 5.84946C24.5272 6.38963 24.3482 7.02646 24.3692 7.67253L24.3672 7.67001C24.3672 9.58921 25.583 10.5492 27.1476 10.5548C27.7278 10.5879 28.3075 10.4838 28.8394 10.2504C29.3719 10.017 29.8418 9.66065 30.2106 9.21123C30.4877 9.68391 30.8493 10.1019 31.2766 10.444C31.3464 10.4816 31.4249 10.4978 31.5034 10.4901C31.5819 10.4824 31.6562 10.4512 31.7168 10.4009L31.7199 10.4038C32.0918 10.0787 32.7648 9.49086 33.1424 9.1781C33.1747 9.14662 33.2009 9.10892 33.2193 9.06727C33.2373 9.02562 33.247 8.98079 33.2475 8.93539C33.2486 8.88994 33.2404 8.84469 33.2234 8.80248C33.207 8.76021 33.1819 8.72175 33.1501 8.68913C32.7109 8.22677 32.4627 7.61531 32.455 6.97741V4.09861C32.455 4.00342 32.4555 3.90882 32.456 3.81491V3.81483V3.81476V3.81468V3.81461C32.4619 2.70738 32.4674 1.69539 31.6347 0.92142C30.8416 0.290091 29.8485 -0.0357162 28.8363 0.00310957C27.0686 0.00310957 25.0915 0.655854 24.6811 2.82773C24.6719 2.87154 24.6719 2.91689 24.6811 2.96064C24.6909 3.0044 24.7088 3.04559 24.7345 3.082C24.7607 3.11841 24.794 3.14933 24.832 3.17229C24.8704 3.19524 24.913 3.20967 24.9576 3.21543L26.7572 3.4075C26.8408 3.39384 26.9178 3.35357 26.9762 3.29267C27.0347 3.23176 27.0717 3.15333 27.0824 3.06947C27.1548 2.73483 27.3461 2.43829 27.6206 2.23441C27.8955 2.03052 28.2351 1.93361 28.5757 1.9616C28.7748 1.95195 28.9733 1.99072 29.1544 2.07443C29.3355 2.15814 29.4935 2.28402 29.6156 2.44204C29.8218 2.8548 29.9008 3.31978 29.8433 3.77763V4.01284C29.6669 4.03303 29.4817 4.052 29.2907 4.07155L29.2907 4.07155L29.2906 4.07156L29.2906 4.07156L29.2906 4.07157C28.3156 4.1714 27.1931 4.28634 26.3494 4.6548C25.7492 4.89207 25.2362 5.30924 24.8817 5.84946ZM0.515962 5.85247C0.161487 6.39217 -0.0180588 7.02828 0.00143472 7.67404V7.67353C0.00143472 9.59068 1.2203 10.5492 2.7844 10.5548C3.3651 10.5884 3.94529 10.4844 4.47777 10.2509C5.01026 10.0175 5.48015 9.66103 5.84899 9.21125C6.12549 9.6844 6.48715 10.1025 6.91549 10.444C6.98423 10.4823 7.06272 10.4991 7.1407 10.4916C7.21918 10.4842 7.29357 10.4529 7.3541 10.4024L7.35974 10.4054C7.73012 10.0798 8.40214 9.49346 8.7838 9.17967C8.81612 9.14778 8.84228 9.10972 8.86024 9.06781C8.87768 9.02585 8.88742 8.98097 8.88742 8.93541C8.88794 8.88981 8.87922 8.8442 8.86229 8.80199C8.84536 8.75977 8.81971 8.72157 8.78739 8.68916C8.34622 8.22782 8.09639 7.61611 8.08819 6.97744V4.09863C8.08819 4.00132 8.08873 3.90464 8.08927 3.80868L8.08927 3.8083C8.0955 2.70355 8.10118 1.69394 7.27151 0.921444C6.47792 0.289961 5.48426 -0.0358468 4.47059 0.003133C2.70283 0.003133 0.73193 0.655878 0.315384 2.82776C0.307176 2.87141 0.307689 2.91666 0.316923 2.96015C0.326156 3.00365 0.344111 3.04474 0.369761 3.08105C0.39541 3.11731 0.428241 3.14766 0.466202 3.17082C0.504164 3.19398 0.546742 3.20918 0.590346 3.21545L2.3976 3.40752C2.4802 3.39299 2.55612 3.35252 2.61357 3.29166C2.67154 3.23086 2.70796 3.15274 2.71822 3.06949C2.79158 2.7349 2.98292 2.43827 3.25789 2.23443C3.53285 2.0306 3.87245 1.93384 4.21307 1.96162C4.41262 1.95223 4.61115 1.9908 4.79223 2.07446C4.97383 2.15812 5.13183 2.2842 5.25444 2.44207C5.45861 2.85549 5.53658 3.32011 5.47913 3.77765V4.01538C5.29774 4.03651 5.10689 4.0563 4.91007 4.0767C3.93966 4.1773 2.82432 4.29292 1.98414 4.65883C1.38343 4.8959 0.87095 5.31281 0.515962 5.85247ZM46.7647 0.0898438C44.077 0.0898438 42.5863 2.38492 42.5859 5.33181C42.5863 8.2633 44.0565 10.6164 46.7647 10.6184C49.3661 10.6184 51.0149 8.32449 51.0149 5.43413C51.0225 2.4426 49.5256 0.0898438 46.7647 0.0898438ZM37.7764 16.3634C38.1996 15.3199 39.1404 12.9779 38.6962 12.4089C38.2596 11.8496 35.8338 12.1319 34.6844 12.2656L34.6251 12.2725C34.2824 12.313 34.2327 12.0156 34.5384 11.803C36.5345 10.4107 39.8053 10.8131 40.1844 11.2814C40.5635 11.7498 40.0879 15.014 38.2109 16.566C38.1324 16.6385 38.0319 16.6816 37.9257 16.6888C37.778 16.6898 37.6938 16.5655 37.7769 16.3614L37.7764 16.3634ZM8.5938 12.0003C8.26754 11.707 8.55943 11.3062 8.9534 11.5379C13.7601 14.268 19.1932 15.7001 24.7196 15.6941C28.8502 15.6753 32.9366 14.8445 36.7471 13.2486C37.3381 13.0026 37.8285 13.6394 37.2529 14.0631C33.7646 16.6201 28.7086 17.9815 24.3533 17.9815C18.5412 18.0134 12.9244 15.8818 8.5938 12.0003ZM45.3281 5.03586V5.07063C45.328 6.24216 45.3277 8.66545 46.7696 8.66545C48.2147 8.66545 48.2835 6.67276 48.2778 5.45714C48.3086 4.61006 48.2147 3.76278 47.9998 2.94297C47.9413 2.66924 47.7864 2.42591 47.5632 2.25741C47.3401 2.08886 47.0636 2.00694 46.7845 2.0262C45.4169 2.02671 45.3281 3.87525 45.3281 5.03386V5.03586ZM2.7208 7.35379C2.7208 8.1529 3.13581 8.69138 3.84938 8.69138C4.11921 8.68013 4.38083 8.59652 4.60706 8.44913C4.83278 8.30173 5.0154 8.0961 5.13441 7.8538C5.43349 7.24692 5.55455 6.56726 5.48325 5.89433V5.49611C4.13768 5.49354 2.71875 5.77873 2.71875 7.35127L2.7208 7.35379ZM27.0724 7.35379C27.0724 8.1529 27.4899 8.69138 28.205 8.69138C28.4744 8.67941 28.7355 8.59549 28.9607 8.44815C29.1864 8.30081 29.3685 8.09553 29.4875 7.8538C29.7866 7.24692 29.9077 6.56726 29.8363 5.89433V5.49611C28.4892 5.49354 27.0703 5.77873 27.0703 7.35127L27.0724 7.35379ZM57.606 10.3288C57.6655 10.3834 57.742 10.4159 57.822 10.4211L59.6898 10.4251C59.7749 10.4256 59.858 10.3957 59.9237 10.3409C59.9894 10.286 60.0335 10.2096 60.0484 10.1252V4.15851V4.1556C60.0484 3.23859 60.0484 1.96677 59.5615 1.20749C59.3286 0.847225 59.0055 0.554183 58.6243 0.357897C58.2432 0.161612 57.8174 0.0686558 57.3895 0.0885822C56.1086 0.0885822 55.3755 0.707688 54.8579 2.00239H54.8287V0.554491C54.8087 0.480178 54.7661 0.413979 54.7061 0.365909C54.6461 0.317839 54.5722 0.290723 54.4958 0.287693H52.7732C52.6854 0.285073 52.6003 0.314963 52.5336 0.371918C52.4674 0.428924 52.4248 0.508732 52.4141 0.595628L52.4161 10.0766C52.4182 10.1661 52.4536 10.2517 52.5161 10.3158C52.5782 10.3799 52.6634 10.4174 52.7526 10.4211H54.5994C54.6456 10.4224 54.6917 10.4147 54.7353 10.398C54.7789 10.3814 54.8184 10.3563 54.8523 10.3244C54.8862 10.2923 54.9133 10.254 54.9323 10.2115C54.9513 10.1689 54.9616 10.1231 54.9631 10.0766V4.97549C54.9272 4.36167 55.0283 3.74755 55.2596 3.178C55.3473 2.96138 55.4961 2.77475 55.6869 2.64035C55.8783 2.506 56.104 2.42932 56.3369 2.42018C57.5172 2.42018 57.5055 3.70658 57.4963 4.71988C57.4955 4.80675 57.4947 4.89161 57.4947 4.97349V10.1212C57.507 10.201 57.5465 10.2743 57.606 10.3288ZM20.5327 10.4193C20.444 10.4145 20.3604 10.3765 20.2988 10.313C20.2367 10.2495 20.2008 10.165 20.1983 10.0762V5.05145C20.2255 4.45848 20.2085 3.86433 20.147 3.27399C20.109 3.02121 19.9731 2.79339 19.7684 2.64055C19.5637 2.48777 19.3072 2.42249 19.0548 2.45849C18.8142 2.46548 18.5803 2.54261 18.3833 2.68071C18.1858 2.81876 18.0335 3.01155 17.9442 3.23537C17.7898 3.82761 17.7318 4.44081 17.7723 5.05145V10.0762C17.7713 10.1224 17.7611 10.1679 17.7426 10.2102C17.7236 10.2524 17.6969 10.2907 17.6636 10.3225C17.6303 10.3544 17.5913 10.3791 17.5482 10.3957C17.5051 10.4124 17.4589 10.4205 17.4133 10.4193H15.5573C15.4685 10.4152 15.3844 10.3777 15.3223 10.314C15.2597 10.2503 15.2238 10.1653 15.2218 10.0762V5.05145C15.2218 4.9454 15.2235 4.83435 15.2253 4.72036L15.2253 4.72021C15.2411 3.69763 15.2607 2.43898 14.0732 2.43898C12.7891 2.43898 12.7917 3.84412 12.7936 4.92724L12.7938 5.05145V10.0773C12.7923 10.1233 12.782 10.1685 12.7635 10.2107C12.7451 10.2528 12.7184 10.2908 12.685 10.3225C12.6517 10.3543 12.6122 10.3792 12.5691 10.3957C12.526 10.4123 12.4804 10.4205 12.4342 10.4193H10.5746C10.491 10.4166 10.411 10.3838 10.3499 10.3266C10.2889 10.2693 10.2504 10.1913 10.2422 10.1079V0.629934C10.2432 0.583867 10.253 0.538673 10.2719 0.496509C10.2904 0.454345 10.3171 0.416443 10.3504 0.384705C10.3838 0.352915 10.4233 0.328007 10.4664 0.31147C10.5089 0.294933 10.5551 0.286665 10.6013 0.287897H12.3331C12.4183 0.290208 12.4999 0.32395 12.5619 0.382651C12.6245 0.441403 12.663 0.521057 12.6702 0.606361V1.84313H12.702C12.8574 1.32007 13.1821 0.863504 13.6253 0.545657C14.0681 0.22781 14.6046 0.066755 15.1489 0.0877599C16.3124 0.0877599 17.0413 0.648063 17.5605 1.84313C17.7364 1.39181 18.0278 0.994824 18.4054 0.692127C18.7834 0.38943 19.2339 0.191757 19.7125 0.118882C20.1911 0.0460069 20.68 0.100342 21.1309 0.276856C21.5813 0.453318 21.9778 0.745949 22.2795 1.12445C22.7827 1.80691 22.767 2.75524 22.7522 3.65146V3.65147C22.7498 3.80128 22.7473 3.94962 22.7473 4.09503L22.7453 10.0762C22.7442 10.1224 22.734 10.168 22.715 10.2102C22.6965 10.2524 22.6699 10.2901 22.6365 10.322C22.6032 10.3539 22.5637 10.3791 22.5211 10.3957C22.478 10.4124 22.4318 10.4204 22.3857 10.4193H20.5327ZM34.3623 8.46299V9.83919L34.3603 9.83719C34.3628 9.92306 34.3962 10.0049 34.4547 10.0679C34.5131 10.1309 34.5921 10.1708 34.6778 10.1797C34.7188 10.1795 34.7594 10.1684 34.7958 10.1482C35.793 9.63531 36.8975 9.36728 38.0189 9.36579C39.1398 9.36425 40.2453 9.6295 41.2441 10.1396C41.2943 10.16 41.3492 10.1676 41.4026 10.1617C41.4564 10.1558 41.5083 10.1363 41.5524 10.1055C41.597 10.0747 41.6334 10.0334 41.658 9.98515C41.6827 9.93687 41.695 9.8829 41.6934 9.82866V8.38128C41.6899 8.2726 41.6575 8.1665 41.6001 8.07432C41.5426 7.98213 41.4616 7.90689 41.3662 7.85564C40.2914 7.30145 39.089 7.04472 37.8825 7.1124L41.0507 2.62269C41.3456 2.21851 41.5124 1.9662 41.5124 1.77155V0.609505C41.5134 0.563284 41.5047 0.517833 41.4867 0.475104C41.4693 0.432427 41.4431 0.393447 41.4098 0.361246C41.3764 0.329097 41.3374 0.303932 41.2943 0.287549C41.2507 0.271166 41.2046 0.263874 41.1584 0.265979H35.0538C35.0087 0.264387 34.963 0.272347 34.921 0.289038C34.8784 0.305729 34.8399 0.331048 34.8076 0.3633C34.7753 0.395501 34.7501 0.433711 34.7332 0.476131C34.7163 0.518501 34.7086 0.563951 34.7101 0.609505V1.96615C34.7091 2.01216 34.7178 2.05756 34.7353 2.10008C34.7527 2.14261 34.7789 2.18097 34.8122 2.21292C34.845 2.24486 34.884 2.27008 34.9271 2.28615C34.9702 2.30222 35.0164 2.30921 35.0626 2.30669H38.2528L34.586 7.53266C34.4203 7.81358 34.3428 8.13743 34.3623 8.46299Z" fill="white"/>
<path opacity="0.4" d="M40.4279 179C50.3766 179 58.4418 170.935 58.4418 160.986C58.4418 151.037 50.3766 142.972 40.4279 142.972C30.4793 142.972 22.4141 151.037 22.4141 160.986C22.4141 170.935 30.4793 179 40.4279 179Z" fill="white"/>
<path opacity="0.859468" d="M18.0139 179C27.963 179 36.0277 170.935 36.0277 160.986C36.0277 151.037 27.963 142.972 18.0139 142.972C8.06521 142.972 0 151.037 0 160.986C0 170.935 8.06521 179 18.0139 179Z" fill="white"/>
</svg>
