<svg width="15" height="15" viewBox="0 0 15 15" fill="none" xmlns="http://www.w3.org/2000/svg">
<path fill-rule="evenodd" clip-rule="evenodd" d="M0 7.5C0 3.36075 3.36 0 7.5 0C11.6475 0 15 3.36075 15 7.5C15 11.6407 11.6475 15 7.5 15C3.36 15 0 11.6407 0 7.5ZM6.84 4.6575C6.84 4.29825 7.14 3.9975 7.5 3.9975C7.86 3.9975 8.1525 4.29825 8.1525 4.6575V7.9725C8.1525 8.33325 7.86 8.625 7.5 8.625C7.14 8.625 6.84 8.33325 6.84 7.9725V4.6575ZM7.5075 11.0107C7.14 11.0107 6.8475 10.7107 6.8475 10.3507C6.8475 9.99075 7.14 9.69825 7.5 9.69825C7.8675 9.69825 8.16 9.99075 8.16 10.3507C8.16 10.7107 7.8675 11.0107 7.5075 11.0107Z" fill="#F75555"/>
</svg>
