<svg width="31" height="31" viewBox="0 0 31 31" fill="none" xmlns="http://www.w3.org/2000/svg">
<path d="M15.4998 30.9997C24.0602 30.9997 30.9997 24.0602 30.9997 15.4998C30.9997 6.93951 24.0602 0 15.4998 0C6.93951 0 0 6.93951 0 15.4998C0 24.0602 6.93951 30.9997 15.4998 30.9997Z" fill="#1AADB6"/>
<path d="M10.7828 16.1737C11.8994 16.1737 12.8045 15.2686 12.8045 14.152C12.8045 13.0355 11.8994 12.1303 10.7828 12.1303C9.66626 12.1303 8.76111 13.0355 8.76111 14.152C8.76111 15.2686 9.66626 16.1737 10.7828 16.1737Z" stroke="white" stroke-miterlimit="10" stroke-linecap="round" stroke-linejoin="round"/>
<path d="M6.73939 9.43485V21.5652M6.73939 21.5652V16.1739H24.2609V21.5652H6.73939ZM24.2609 18.8695H6.73939M22.9131 16.1739H14.1524V12.1305H19.0274C20.058 12.1305 21.0463 12.5399 21.775 13.2686C22.5037 13.9973 22.9131 14.9856 22.9131 16.0162V16.1739Z" stroke="white" stroke-miterlimit="10" stroke-linecap="round" stroke-linejoin="round"/>
</svg>
