<svg width="23" height="23" viewBox="0 0 23 23" fill="none" xmlns="http://www.w3.org/2000/svg">
<path fill-rule="evenodd" clip-rule="evenodd" d="M0.766667 4.94074C0.766667 1.80993 0.80019 0.766667 4.94074 0.766667C9.08129 0.766667 9.11481 1.80993 9.11481 4.94074C9.11481 8.07155 9.12802 9.11482 4.94074 9.11482C0.753461 9.11482 0.766667 8.07155 0.766667 4.94074Z" stroke="white" stroke-width="1.5" stroke-linecap="round" stroke-linejoin="round"/>
<path fill-rule="evenodd" clip-rule="evenodd" d="M13.8849 4.94074C13.8849 1.80993 13.9184 0.766667 18.0589 0.766667C22.1995 0.766667 22.233 1.80993 22.233 4.94074C22.233 8.07155 22.2462 9.11482 18.0589 9.11482C13.8716 9.11482 13.8849 8.07155 13.8849 4.94074Z" stroke="white" stroke-width="1.5" stroke-linecap="round" stroke-linejoin="round"/>
<path fill-rule="evenodd" clip-rule="evenodd" d="M0.766667 18.0593C0.766667 14.9285 0.80019 13.8852 4.94074 13.8852C9.08129 13.8852 9.11481 14.9285 9.11481 18.0593C9.11481 21.1901 9.12802 22.2333 4.94074 22.2333C0.753461 22.2333 0.766667 21.1901 0.766667 18.0593Z" stroke="white" stroke-width="1.5" stroke-linecap="round" stroke-linejoin="round"/>
<path fill-rule="evenodd" clip-rule="evenodd" d="M13.8849 18.0593C13.8849 14.9285 13.9184 13.8852 18.0589 13.8852C22.1995 13.8852 22.233 14.9285 22.233 18.0593C22.233 21.1901 22.2462 22.2333 18.0589 22.2333C13.8716 22.2333 13.8849 21.1901 13.8849 18.0593Z" stroke="white" stroke-width="1.5" stroke-linecap="round" stroke-linejoin="round"/>
</svg>
