<svg width="27" height="26" viewBox="0 0 27 26" fill="none" xmlns="http://www.w3.org/2000/svg">
<path d="M25.6502 9.44943H6.75004V5.55196C6.75004 4.206 7.66535 2.95589 8.99241 2.73719C9.38003 2.67123 9.77737 2.6906 10.1567 2.79395C10.5361 2.8973 10.8884 3.08213 11.189 3.33558C11.4896 3.58902 11.7313 3.90498 11.8973 4.26142C12.0633 4.61786 12.1496 5.00621 12.1501 5.39941H14.8501C14.8494 4.64516 14.6909 3.8994 14.3847 3.2101C14.0785 2.52081 13.6314 1.90325 13.0721 1.39715C12.5129 0.891054 11.8539 0.507631 11.1375 0.271547C10.4212 0.0354631 9.66332 -0.048052 8.91276 0.0263747C6.10609 0.299076 4.05002 2.81954 4.05002 5.63971V9.44943H1.35001C0.991964 9.44943 0.648584 9.59166 0.395408 9.84484C0.142233 10.098 0 10.4414 0 10.7994V13.4995C0 17.0176 2.25991 20.0105 5.40003 21.127V25.6495H8.10005V21.5995H18.9001V25.6495H21.6001V21.127C24.7403 20.0105 27.0002 17.0176 27.0002 13.4995V10.7994C27.0002 10.4414 26.8579 10.098 26.6048 9.84484C26.3516 9.59166 26.0082 9.44943 25.6502 9.44943Z" fill="#1AADB6"/>
</svg>
