<svg width="15" height="17" viewBox="0 0 15 17" fill="none" xmlns="http://www.w3.org/2000/svg">
<path fill-rule="evenodd" clip-rule="evenodd" d="M11.9193 4.58661V5.88995C13.3833 6.34692 14.45 7.67222 14.45 9.25515V13.4515C14.45 15.4112 12.8254 17 10.8224 17H3.62848C1.62465 17 0 15.4112 0 13.4515V9.25515C0 7.67222 1.06756 6.34692 2.53069 5.88995V4.58661C2.53933 2.05257 4.63817 0 7.21205 0C9.82048 0 11.9193 2.05257 11.9193 4.58661ZM7.22932 1.47819C8.98267 1.47819 10.4078 2.87191 10.4078 4.58661V5.70665H4.0422V4.56971C4.05084 2.86346 5.47597 1.47819 7.22932 1.47819ZM7.98076 12.2867C7.98076 12.7006 7.64391 13.03 7.22069 13.03C6.8061 13.03 6.46925 12.7006 6.46925 12.2867V10.4115C6.46925 10.0061 6.8061 9.67664 7.22069 9.67664C7.64391 9.67664 7.98076 10.0061 7.98076 10.4115V12.2867Z" fill="white"/>
</svg>
