<svg width="15" height="15" viewBox="0 0 15 15" fill="none" xmlns="http://www.w3.org/2000/svg">
<path fill-rule="evenodd" clip-rule="evenodd" d="M4.2525 0H10.755C13.2975 0 15 1.785 15 4.44V10.5683C15 13.215 13.2975 15 10.755 15H4.2525C1.71 15 0 13.215 0 10.5683V4.44C0 1.785 1.71 0 4.2525 0ZM7.0725 9.7425L10.635 6.18C10.89 5.925 10.89 5.5125 10.635 5.25C10.38 4.995 9.96 4.995 9.705 5.25L6.6075 8.3475L5.295 7.035C5.04 6.78 4.62 6.78 4.365 7.035C4.11 7.29 4.11 7.7025 4.365 7.965L6.15 9.7425C6.2775 9.87 6.4425 9.93 6.6075 9.93C6.78 9.93 6.945 9.87 7.0725 9.7425Z" fill="#1AADB6"/>
</svg>
