<svg width="20" height="24" viewBox="0 0 20 24" fill="none" xmlns="http://www.w3.org/2000/svg">
<path d="M14.5229 0.0120105C14.4719 -0.0449895 12.6344 0.0345106 11.0354 1.77001C9.43639 3.50401 9.68239 5.49301 9.71839 5.54401C9.75439 5.59501 11.9984 5.67451 13.4309 3.65701C14.8634 1.63951 14.5739 0.0705105 14.5229 0.0120105ZM19.4939 17.6115C19.4219 17.4675 16.0064 15.7605 16.3244 12.4785C16.6424 9.19501 18.8369 8.29501 18.8714 8.19751C18.9059 8.10001 17.9759 7.01251 16.9904 6.46201C16.2668 6.07389 15.466 5.85152 14.6459 5.81101C14.4839 5.80651 13.9214 5.66851 12.7649 5.98501C12.0029 6.19351 10.2854 6.86851 9.81289 6.89551C9.33889 6.92251 7.92889 6.11251 6.41239 5.89801C5.44189 5.71051 4.41289 6.09451 3.67639 6.39001C2.94139 6.68401 1.54339 7.52101 0.565389 9.74551C-0.412611 11.9685 0.0988887 15.4905 0.464889 16.5855C0.830889 17.679 1.40239 19.4715 2.37439 20.7795C3.23839 22.2555 4.38439 23.28 4.86289 23.628C5.34139 23.976 6.69139 24.207 7.62739 23.7285C8.38039 23.2665 9.73939 23.001 10.2764 23.0205C10.8119 23.04 11.8679 23.2515 12.9494 23.829C13.8059 24.1245 14.6159 24.0015 15.4274 23.6715C16.2389 23.34 17.4134 22.083 18.7844 19.5345C19.3049 18.3495 19.5419 17.709 19.4939 17.6115Z" fill="white"/>
<path d="M14.5229 0.0120105C14.4719 -0.0449895 12.6344 0.0345106 11.0354 1.77001C9.43639 3.50401 9.68239 5.49301 9.71839 5.54401C9.75439 5.59501 11.9984 5.67451 13.4309 3.65701C14.8634 1.63951 14.5739 0.0705105 14.5229 0.0120105ZM19.4939 17.6115C19.4219 17.4675 16.0064 15.7605 16.3244 12.4785C16.6424 9.19501 18.8369 8.29501 18.8714 8.19751C18.9059 8.10001 17.9759 7.01251 16.9904 6.46201C16.2668 6.07389 15.466 5.85152 14.6459 5.81101C14.4839 5.80651 13.9214 5.66851 12.7649 5.98501C12.0029 6.19351 10.2854 6.86851 9.81289 6.89551C9.33889 6.92251 7.92889 6.11251 6.41239 5.89801C5.44189 5.71051 4.41289 6.09451 3.67639 6.39001C2.94139 6.68401 1.54339 7.52101 0.565389 9.74551C-0.412611 11.9685 0.0988887 15.4905 0.464889 16.5855C0.830889 17.679 1.40239 19.4715 2.37439 20.7795C3.23839 22.2555 4.38439 23.28 4.86289 23.628C5.34139 23.976 6.69139 24.207 7.62739 23.7285C8.38039 23.2665 9.73939 23.001 10.2764 23.0205C10.8119 23.04 11.8679 23.2515 12.9494 23.829C13.8059 24.1245 14.6159 24.0015 15.4274 23.6715C16.2389 23.34 17.4134 22.083 18.7844 19.5345C19.3049 18.3495 19.5419 17.709 19.4939 17.6115Z" fill="white"/>
</svg>
