<svg width="17" height="15" viewBox="0 0 17 15" fill="none" xmlns="http://www.w3.org/2000/svg">
<path fill-rule="evenodd" clip-rule="evenodd" d="M6.63265 9.98949C7.16344 10.3493 7.81034 10.5669 8.49871 10.5669C10.3233 10.5669 11.8079 9.06899 11.8079 7.228C11.8079 6.53344 11.5922 5.88072 11.2356 5.34516L10.3316 6.25729C10.4809 6.54181 10.5638 6.87653 10.5638 7.228C10.5638 8.37443 9.63494 9.31167 8.49871 9.31167C8.15038 9.31167 7.81864 9.22799 7.53666 9.07736L6.63265 9.98949ZM13.9642 2.59204C15.1668 3.69663 16.1869 5.18617 16.9499 6.97695C17.0163 7.13595 17.0163 7.32005 16.9499 7.47067C15.1751 11.638 12.0152 14.1317 8.49872 14.1317H8.49042C6.88975 14.1317 5.35544 13.6045 4.00358 12.6422L2.39462 14.2656C2.27021 14.3911 2.11263 14.4497 1.95505 14.4497C1.79747 14.4497 1.6316 14.3911 1.51549 14.2656C1.30815 14.0564 1.27498 13.7217 1.44085 13.479L1.46573 13.4455L13.732 1.06903C13.7486 1.0523 13.7652 1.03556 13.7735 1.01882L13.7735 1.01882C13.79 1.00208 13.8066 0.985349 13.8149 0.968614L14.5945 0.182007C14.8433 -0.0606692 15.2331 -0.0606692 15.4736 0.182007C15.7225 0.424684 15.7225 0.826356 15.4736 1.06903L13.9642 2.59204ZM5.18351 7.23126C5.18351 7.44883 5.20839 7.6664 5.24156 7.86724L2.17293 10.9635C1.34357 9.99275 0.622021 8.82121 0.0497617 7.47394C-0.0165872 7.32331 -0.0165872 7.13921 0.0497617 6.98022C1.82459 2.81287 4.98446 0.32753 8.49266 0.32753H8.50095C9.68694 0.32753 10.8398 0.612047 11.9013 1.14761L9.13127 3.94257C8.93222 3.9091 8.71659 3.884 8.50095 3.884C6.66806 3.884 5.18351 5.3819 5.18351 7.23126Z" fill="white"/>
</svg>
