<svg width="24" height="24" viewBox="0 0 24 24" fill="none" xmlns="http://www.w3.org/2000/svg">
<path fill-rule="evenodd" clip-rule="evenodd" d="M3.04791 0H7.1038C8.79575 0 10.1517 1.37996 10.1517 3.07311V7.1638C10.1517 8.86775 8.79575 10.2357 7.1038 10.2357H3.04791C1.36796 10.2357 0 8.86775 0 7.1638V3.07311C0 1.37996 1.36796 0 3.04791 0ZM3.04791 13.7633H7.1038C8.79575 13.7633 10.1517 15.1324 10.1517 16.8364V20.9271C10.1517 22.619 8.79575 23.999 7.1038 23.999H3.04791C1.36796 23.999 0 22.619 0 20.9271V16.8364C0 15.1324 1.36796 13.7633 3.04791 13.7633ZM20.952 0H16.8961C15.2041 0 13.8482 1.37996 13.8482 3.07311V7.1638C13.8482 8.86775 15.2041 10.2357 16.8961 10.2357H20.952C22.6319 10.2357 23.9999 8.86775 23.9999 7.1638V3.07311C23.9999 1.37996 22.6319 0 20.952 0ZM16.8961 13.7633H20.952C22.6319 13.7633 23.9999 15.1324 23.9999 16.8364V20.9271C23.9999 22.619 22.6319 23.999 20.952 23.999H16.8961C15.2041 23.999 13.8482 22.619 13.8482 20.9271V16.8364C13.8482 15.1324 15.2041 13.7633 16.8961 13.7633Z" fill="#1AADB6"/>
</svg>
