<svg width="17" height="21" viewBox="0 0 17 21" fill="none" xmlns="http://www.w3.org/2000/svg">
<path d="M16.4994 4.28985H16.9994L16.9994 4.28434L16.4994 4.28985ZM16.3794 19.9593L16.8191 20.1974L16.8206 20.1946L16.3794 19.9593ZM15.7595 20.4593L15.6174 19.9799L15.6124 19.9814L15.7595 20.4593ZM14.9695 20.3593L15.2214 19.9274L15.2075 19.9193L15.1931 19.9121L14.9695 20.3593ZM8.4897 17.1194L8.7133 16.6722L8.48988 16.5605L8.26638 16.6721L8.4897 17.1194ZM1.99993 20.3593L1.77654 19.9118L1.76572 19.9176L1.99993 20.3593ZM11.5696 0H5.39981V0.999965H11.5696V0ZM16.9994 4.28434C16.9827 2.76916 16.3527 1.66598 15.3213 0.962C14.3168 0.276286 12.9786 0 11.5696 0V0.999965C12.8705 0.999965 13.9822 1.25866 14.7576 1.7879C15.5062 2.29888 15.9862 3.09064 15.9995 4.29536L16.9994 4.28434ZM16.9994 19.4693V4.28985H15.9994V19.4693H16.9994ZM16.8206 20.1946C16.9415 19.9679 16.9994 19.7164 16.9994 19.4693H15.9994C15.9994 19.5622 15.9774 19.6507 15.9383 19.724L16.8206 20.1946ZM15.9015 20.9387C16.2983 20.8211 16.6256 20.5546 16.8191 20.1974L15.9398 19.7212C15.8733 19.844 15.7606 19.9375 15.6174 19.9799L15.9015 20.9387ZM14.7176 20.7912C15.0692 20.9963 15.5033 21.0612 15.9065 20.9372L15.6124 19.9814C15.4957 20.0173 15.3497 20.0023 15.2214 19.9274L14.7176 20.7912ZM8.2661 17.5666L14.7459 20.8065L15.1931 19.9121L8.7133 16.6722L8.2661 17.5666ZM2.22325 20.8066L8.71303 17.5667L8.26638 16.6721L1.77661 19.912L2.22325 20.8066ZM1.50995 20.9893C1.77698 20.9893 2.02795 20.9103 2.23414 20.801L1.76572 19.9176C1.67392 19.9662 1.5829 19.9893 1.50995 19.9893V20.9893ZM0 19.4693C0 20.299 0.667442 20.9893 1.50995 20.9893V19.9893C1.23249 19.9893 0.999965 19.7596 0.999965 19.4693H0ZM0 4.28985V19.4693H0.999965V4.28985H0ZM5.39981 0C3.99584 0 2.65733 0.276278 1.65502 0.96237C0.625203 1.66728 0 2.77254 0 4.28985H0.999965C0.999965 3.08726 1.47472 2.29758 2.21985 1.78753C2.99247 1.25867 4.10387 0.999965 5.39981 0.999965V0ZM12.2496 7.61973H4.71984V8.6197H12.2496V7.61973ZM12.5296 7.32974C12.5296 7.49717 12.3989 7.61973 12.2496 7.61973V8.6197C12.9602 8.6197 13.5295 8.04029 13.5295 7.32974H12.5296ZM12.2496 7.03975C12.3993 7.03975 12.5296 7.16173 12.5296 7.32974H13.5295C13.5295 6.61779 12.9598 6.03979 12.2496 6.03979V7.03975ZM4.71984 7.03975H12.2496V6.03979H4.71984V7.03975ZM4.43985 7.32974C4.43985 7.16173 4.57013 7.03975 4.71984 7.03975V6.03979C4.00957 6.03979 3.43988 6.61779 3.43988 7.32974H4.43985ZM4.71984 7.61973C4.57054 7.61973 4.43985 7.49717 4.43985 7.32974H3.43988C3.43988 8.04028 4.00916 8.6197 4.71984 8.6197V7.61973Z" fill="white"/>
</svg>
