<svg width="11" height="10" viewBox="0 0 11 10" fill="none" xmlns="http://www.w3.org/2000/svg">
<path d="M8.37771 6.22057C8.2414 6.35267 8.17878 6.54371 8.20983 6.73106L8.67769 9.32033C8.71716 9.53979 8.62453 9.76188 8.44086 9.88871C8.26088 10.0203 8.02142 10.0361 7.82512 9.93081L5.49425 8.71512C5.4132 8.67196 5.32321 8.64881 5.23111 8.64618H5.08849C5.03902 8.65354 4.9906 8.66933 4.9464 8.69354L2.615 9.91503C2.49974 9.97292 2.36923 9.99344 2.24134 9.97292C1.92979 9.91397 1.72191 9.61715 1.77296 9.30402L2.24134 6.71475C2.27239 6.52581 2.20976 6.33372 2.07346 6.19952L0.173079 4.35756C0.0141441 4.20336 -0.0411148 3.9718 0.0315112 3.76287C0.102032 3.55446 0.282018 3.40237 0.49937 3.36816L3.11496 2.98872C3.31389 2.96819 3.48861 2.84715 3.57808 2.66822L4.73062 0.30524C4.75799 0.252612 4.79325 0.204195 4.83588 0.163145L4.88324 0.126306C4.90798 0.0989397 4.9364 0.0763099 4.96797 0.0578903L5.02534 0.0368393L5.1148 0H5.33637C5.53424 0.0205247 5.70844 0.138937 5.79949 0.315765L6.96729 2.66822C7.0515 2.84031 7.21517 2.95977 7.4041 2.98872L10.0197 3.36816C10.2407 3.39974 10.4254 3.55236 10.4986 3.76287C10.5675 3.9739 10.5081 4.20547 10.346 4.35756L8.37771 6.22057Z" fill="#FFD300"/>
</svg>
