<svg width="12" height="12" viewBox="0 0 12 12" fill="none" xmlns="http://www.w3.org/2000/svg">
<path d="M11.1425 6.85695H6.85695V11.1425C6.85695 11.614 6.47125 11.9997 5.99983 11.9997C5.52842 11.9997 5.14271 11.614 5.14271 11.1425V6.85695H0.857119C0.385704 6.85695 0 6.47125 0 5.99983C0 5.52842 0.385704 5.14271 0.857119 5.14271H5.14271V0.857119C5.14271 0.385704 5.52842 0 5.99983 0C6.47125 0 6.85695 0.385704 6.85695 0.857119V5.14271H11.1425C11.614 5.14271 11.9997 5.52842 11.9997 5.99983C11.9997 6.47125 11.614 6.85695 11.1425 6.85695Z" fill="white"/>
</svg>
