<svg width="27" height="32" viewBox="0 0 27 32" fill="none" xmlns="http://www.w3.org/2000/svg">
<path d="M8.70206 32.0002C3.9395 31.9727 0 22.2507 0 17.2996C0 9.21181 6.06719 7.44118 8.40544 7.44118C9.45919 7.44118 10.5844 7.855 11.5768 8.22118C12.2708 8.47662 12.9886 8.74031 13.3878 8.74031C13.6267 8.74031 14.1898 8.516 14.6869 8.31918C15.7471 7.89712 17.0663 7.37256 18.6026 7.37256C18.6053 7.37256 18.609 7.37256 18.6117 7.37256C19.7588 7.37256 23.2369 7.62431 25.328 10.7646L25.8178 11.5006L25.1129 12.0326C24.1058 12.7924 22.2683 14.1786 22.2683 16.9242C22.2683 20.1762 24.3493 21.4268 25.3491 22.0283C25.7904 22.2938 26.2472 22.5676 26.2472 23.1663C26.2472 23.5572 23.1271 31.9517 18.5961 31.9517C17.4874 31.9517 16.7038 31.6184 16.0125 31.3246C15.3131 31.027 14.7097 30.7707 13.7127 30.7707C13.2073 30.7707 12.5683 31.0096 11.8917 31.2632C10.9671 31.6083 9.92063 32.0002 8.73319 32.0002H8.70206Z" fill="white"/>
<path d="M19.0821 0C19.2001 4.25475 16.1573 7.2065 13.118 7.02138C12.6172 3.62594 16.1569 0 19.0821 0Z" fill="white"/>
</svg>
