<svg width="24" height="24" viewBox="0 0 24 24" fill="none" xmlns="http://www.w3.org/2000/svg">
<path d="M19.6667 0C20.8159 0 21.9181 0.456546 22.7308 1.2692C23.5435 2.08186 24 3.18406 24 4.33333V19.6667C24 20.8159 23.5435 21.9181 22.7308 22.7308C21.9181 23.5435 20.8159 24 19.6667 24H19.3333V15.1373L20.744 13.5507C21.1239 13.1235 21.3338 12.5717 21.3338 12C21.3338 11.4283 21.1239 10.8765 20.744 10.4493L19.3333 8.86267V0H19.6667ZM14.7827 16.744C14.451 16.449 14.2103 16.0655 14.0889 15.6385C13.9675 15.2115 13.9704 14.7587 14.0973 14.3333H9.90267C10.0318 14.7656 10.0329 15.2261 9.90573 15.6589C9.77857 16.0918 9.52865 16.4785 9.18622 16.7723C8.84379 17.066 8.42355 17.2542 7.97637 17.314C7.52919 17.3739 7.07426 17.3027 6.66667 17.1093V24H17.3333V17.1093C16.9193 17.3056 16.4566 17.3756 16.003 17.3107C15.5494 17.2457 15.125 17.0486 14.7827 16.744ZM14.7827 7.256C15.125 6.95138 15.5494 6.75429 16.003 6.68932C16.4566 6.62436 16.9193 6.69438 17.3333 6.89067V0H6.66667V6.89067C7.07431 6.69686 7.52942 6.62545 7.97684 6.68509C8.42425 6.74472 8.84477 6.93285 9.18742 7.22667C9.53006 7.52049 9.78013 7.90739 9.90732 8.34047C10.0345 8.77355 10.0334 9.23423 9.904 9.66667H14.096C13.9692 9.24115 13.9665 8.78831 14.0882 8.3613C14.2098 7.93429 14.4507 7.55085 14.7827 7.256ZM4.66667 8.86267V0H4.33333C3.18406 0 2.08186 0.456546 1.2692 1.2692C0.456546 2.08186 0 3.18406 0 4.33333V19.6667C0 20.8159 0.456546 21.9181 1.2692 22.7308C2.08186 23.5435 3.18406 24 4.33333 24H4.66667V15.1373L3.256 13.5507C2.87607 13.1235 2.66619 12.5717 2.66619 12C2.66619 11.4283 2.87607 10.8765 3.256 10.4493L4.66667 8.86267ZM16.7733 11H7.22667L8.41333 9.664C8.57715 9.46428 8.65732 9.20892 8.63707 8.95141C8.61681 8.6939 8.4977 8.45422 8.30467 8.28256C8.11165 8.11091 7.85969 8.02061 7.60158 8.03057C7.34347 8.04053 7.09922 8.14998 6.92 8.336L4.25333 11.336C4.09082 11.519 4.00107 11.7553 4.00107 12C4.00107 12.2447 4.09082 12.481 4.25333 12.664L6.92 15.664C7.00541 15.7681 7.11098 15.8539 7.23037 15.9163C7.34976 15.9786 7.48051 16.0162 7.61477 16.0267C7.74904 16.0373 7.88406 16.0206 8.01173 15.9777C8.13939 15.9348 8.25708 15.8666 8.35772 15.7771C8.45836 15.6876 8.53989 15.5787 8.59741 15.4569C8.65493 15.3351 8.68725 15.203 8.69245 15.0684C8.69764 14.9338 8.67559 14.7996 8.62763 14.6737C8.57967 14.5479 8.50678 14.433 8.41333 14.336L7.22667 13H16.7733L15.5867 14.336C15.4932 14.433 15.4203 14.5479 15.3724 14.6737C15.3244 14.7996 15.3024 14.9338 15.3076 15.0684C15.3127 15.203 15.3451 15.3351 15.4026 15.4569C15.4601 15.5787 15.5416 15.6876 15.6423 15.7771C15.7429 15.8666 15.8606 15.9348 15.9883 15.9777C16.1159 16.0206 16.251 16.0373 16.3852 16.0267C16.5195 16.0162 16.6502 15.9786 16.7696 15.9163C16.889 15.8539 16.9946 15.7681 17.08 15.664L19.7467 12.664L19.7613 12.648C19.919 12.4641 20.0042 12.229 20.001 11.9867C19.9978 11.7445 19.9064 11.5117 19.744 11.332L17.0813 8.336C16.9033 8.14519 16.6577 8.03156 16.397 8.01936C16.1363 8.00716 15.8811 8.09736 15.686 8.27071C15.4909 8.44405 15.3713 8.68681 15.3528 8.94713C15.3342 9.20745 15.4181 9.46472 15.5867 9.664L16.7733 11Z" fill="#1AADB6"/>
</svg>
